<svg width="32" height="32" viewBox="0 0 32 32" fill="none" xmlns="http://www.w3.org/2000/svg">
<path d="M14 1.1547C15.2376 0.440169 16.7624 0.440169 18 1.1547L27.8564 6.8453C29.094 7.55983 29.8564 8.88034 29.8564 10.3094V21.6906C29.8564 23.1197 29.094 24.4402 27.8564 25.1547L18 30.8453C16.7624 31.5598 15.2376 31.5598 14 30.8453L4.14359 25.1547C2.90599 24.4402 2.14359 23.1197 2.14359 21.6906V10.3094C2.14359 8.88034 2.90599 7.55983 4.14359 6.8453L14 1.1547Z" stroke="url(#paint0_linear_188_5213)"/>
<path d="M16.1992 17.3047C17.3887 17.3047 18.2559 16.4199 18.2559 15.1191V11.1758C18.2559 9.88086 17.3887 8.99023 16.1992 8.99023C15.0098 8.99023 14.1426 9.88086 14.1426 11.1758V15.1191C14.1426 16.4199 15.0098 17.3047 16.1992 17.3047ZM11.752 15.2539C11.752 17.6621 13.3516 19.3145 15.666 19.5371V20.7383H13.5098C13.2109 20.7383 12.959 20.9844 12.959 21.2891C12.959 21.5879 13.2109 21.834 13.5098 21.834H18.8887C19.1934 21.834 19.4453 21.5879 19.4453 21.2891C19.4453 20.9844 19.1934 20.7383 18.8887 20.7383H16.7383V19.5371C19.0469 19.3145 20.6523 17.6621 20.6523 15.2539V14.0938C20.6523 13.7891 20.4062 13.5488 20.1016 13.5488C19.7969 13.5488 19.5449 13.7891 19.5449 14.0938V15.2129C19.5449 17.2051 18.1973 18.5234 16.1992 18.5234C14.2012 18.5234 12.8535 17.2051 12.8535 15.2129V14.0938C12.8535 13.7891 12.6074 13.5488 12.3027 13.5488C11.998 13.5488 11.752 13.7891 11.752 14.0938V15.2539Z" fill="white"/>
<defs>
<linearGradient id="paint0_linear_188_5213" x1="5.2" y1="4" x2="28.4" y2="24.8" gradientUnits="userSpaceOnUse">
<stop stop-color="#A73EE7"/>
<stop offset="1" stop-color="#00EBFF"/>
</linearGradient>
</defs>
</svg>
